{
    "asset": {
        "generator": "FBX2glTF v0.9.7",
        "version": "2.0"
    },
    "scene": 0,
    "buffers": [
        {
            "byteLength": 703032,
            "uri": "buffer.bin"
        }
    ],
    "bufferViews": [
        {
            "buffer": 0,
            "byteLength": 304,
            "byteOffset": 0
        },
        {
            "buffer": 0,
            "byteLength": 912,
            "byteOffset": 304
        },
        {
            "buffer": 0,
            "byteLength": 1216,
            "byteOffset": 1216
        },
        {
            "buffer": 0,
            "byteLength": 68580,
            "byteOffset": 2432,
            "target": 34963
        },
        {
            "buffer": 0,
            "byteLength": 121680,
            "byteOffset": 71012,
            "target": 34962
        },
        {
            "buffer": 0,
            "byteLength": 121680,
            "byteOffset": 192692,
            "target": 34962
        },
        {
            "buffer": 0,
            "byteLength": 81120,
            "byteOffset": 314372,
            "target": 34962
        },
        {
            "buffer": 0,
            "byteLength": 81120,
            "byteOffset": 395492,
            "target": 34962
        },
        {
            "buffer": 0,
            "byteLength": 162240,
            "byteOffset": 476612,
            "target": 34962
        },
        {
            "buffer": 0,
            "byteLength": 6288,
            "byteOffset": 638852,
            "target": 34963
        },
        {
            "buffer": 0,
            "byteLength": 12120,
            "byteOffset": 645140,
            "target": 34962
        },
        {
            "buffer": 0,
            "byteLength": 12120,
            "byteOffset": 657260,
            "target": 34962
        },
        {
            "buffer": 0,
            "byteLength": 8080,
            "byteOffset": 669380,
            "target": 34962
        },
        {
            "buffer": 0,
            "byteLength": 8080,
            "byteOffset": 677460,
            "target": 34962
        },
        {
            "buffer": 0,
            "byteLength": 16160,
            "byteOffset": 685540,
            "target": 34962
        },
        {
            "buffer": 0,
            "byteLength": 180,
            "byteOffset": 701700,
            "target": 34963
        },
        {
            "buffer": 0,
            "byteLength": 384,
            "byteOffset": 701880,
            "target": 34962
        },
        {
            "buffer": 0,
            "byteLength": 384,
            "byteOffset": 702264,
            "target": 34962
        },
        {
            "buffer": 0,
            "byteLength": 256,
            "byteOffset": 702648,
            "target": 34962
        },
        {
            "buffer": 0,
            "byteLength": 128,
            "byteOffset": 702904
        }
    ],
    "scenes": [
        {
            "name": "Root Scene",
            "nodes": [
                0
            ]
        }
    ],
    "accessors": [
        {
            "componentType": 5126,
            "type": "SCALAR",
            "count": 76,
            "bufferView": 0,
            "byteOffset": 0,
            "min": [
                0.0
            ],
            "max": [
                3.125
            ]
        },
        {
            "componentType": 5126,
            "type": "VEC3",
            "count": 76,
            "bufferView": 1,
            "byteOffset": 0
        },
        {
            "componentType": 5126,
            "type": "VEC4",
            "count": 76,
            "bufferView": 2,
            "byteOffset": 0
        },
        {
            "componentType": 5123,
            "type": "SCALAR",
            "count": 34290,
            "bufferView": 3,
            "byteOffset": 0
        },
        {
            "componentType": 5126,
            "type": "VEC3",
            "count": 10140,
            "bufferView": 4,
            "byteOffset": 0,
            "min": [
                -0.0047820070758462,
                -0.0047820070758462,
                0.000126045342767611
            ],
            "max": [
                0.0047820070758462,
                0.0047820070758462,
                0.00344811007380486
            ]
        },
        {
            "componentType": 5126,
            "type": "VEC3",
            "count": 10140,
            "bufferView": 5,
            "byteOffset": 0
        },
        {
            "componentType": 5126,
            "type": "VEC2",
            "count": 10140,
            "bufferView": 6,
            "byteOffset": 0
        },
        {
            "componentType": 5123,
            "type": "VEC4",
            "count": 10140,
            "bufferView": 7,
            "byteOffset": 0
        },
        {
            "componentType": 5126,
            "type": "VEC4",
            "count": 10140,
            "bufferView": 8,
            "byteOffset": 0
        },
        {
            "componentType": 5123,
            "type": "SCALAR",
            "count": 3144,
            "bufferView": 9,
            "byteOffset": 0
        },
        {
            "componentType": 5126,
            "type": "VEC3",
            "count": 1010,
            "bufferView": 10,
            "byteOffset": 0,
            "min": [
                -0.00230334838852286,
                -0.00191639445256442,
                0.00255638267844915
            ],
            "max": [
                0.00230334838852286,
                0.00191639526747167,
                0.00794116407632828
            ]
        },
        {
            "componentType": 5126,
            "type": "VEC3",
            "count": 1010,
            "bufferView": 11,
            "byteOffset": 0
        },
        {
            "componentType": 5126,
            "type": "VEC2",
            "count": 1010,
            "bufferView": 12,
            "byteOffset": 0
        },
        {
            "componentType": 5123,
            "type": "VEC4",
            "count": 1010,
            "bufferView": 13,
            "byteOffset": 0
        },
        {
            "componentType": 5126,
            "type": "VEC4",
            "count": 1010,
            "bufferView": 14,
            "byteOffset": 0
        },
        {
            "componentType": 5123,
            "type": "SCALAR",
            "count": 90,
            "bufferView": 15,
            "byteOffset": 0
        },
        {
            "componentType": 5126,
            "type": "VEC3",
            "count": 32,
            "bufferView": 16,
            "byteOffset": 0,
            "min": [
                -0.0272130500525236,
                -0.0187844056636095,
                0.0
            ],
            "max": [
                0.0272130500525236,
                0.0187844056636095,
                0.020903130993247
            ]
        },
        {
            "componentType": 5126,
            "type": "VEC3",
            "count": 32,
            "bufferView": 17,
            "byteOffset": 0
        },
        {
            "componentType": 5126,
            "type": "VEC2",
            "count": 32,
            "bufferView": 18,
            "byteOffset": 0
        },
        {
            "componentType": 5126,
            "type": "MAT4",
            "count": 2,
            "bufferView": 19,
            "byteOffset": 0
        }
    ],
    "images": [
        {
            "name": "Med_Kit_Komplekt_Med_KIT_Ligh_Normal_OpenGL.png",
            "uri": "Med_Kit_Komplekt_Med_KIT_Ligh_Normal_OpenGL.png"
        },
        {
            "name": "ao_met_rough_Med_Kit_Komplekt_Med_KIT_Ligh_Roughness",
            "uri": "ao_met_rough_Med_Kit_Komplekt_Med_KIT_Ligh_Roughness.jpg"
        },
        {
            "name": "Med_Kit_Komplekt_Med_Kit_Normal_OpenGL.png",
            "uri": "Med_Kit_Komplekt_Med_Kit_Normal_OpenGL.png"
        },
        {
            "name": "ao_met_rough_Med_Kit_Komplekt_Med_Kit_Roughness",
            "uri": "ao_met_rough_Med_Kit_Komplekt_Med_Kit_Roughness.jpg"
        },
        {
            "name": "Med_Kit_Komplekt_Med_Kit_BaseColor.png",
            "uri": "Med_Kit_Komplekt_Med_Kit_BaseColor.png"
        }
    ],
    "samplers": [
        {}
    ],
    "textures": [
        {
            "name": "normalmap_texture",
            "sampler": 0,
            "source": 0
        },
        {
            "name": "ao_met_rough_Med_Kit_Komplekt_Med_KIT_Ligh_Roughness",
            "sampler": 0,
            "source": 1
        },
        {
            "name": "normalmap_texture",
            "sampler": 0,
            "source": 2
        },
        {
            "name": "ao_met_rough_Med_Kit_Komplekt_Med_Kit_Roughness",
            "sampler": 0,
            "source": 3
        },
        {
            "name": "base_color_texture",
            "sampler": 0,
            "source": 4
        }
    ],
    "materials": [
        {
            "name": "Med_KIT_Ligh",
            "alphaMode": "OPAQUE",
            "extras": {
                "fromFBX": {
                    "shadingModel": "Phong",
                    "isTruePBR": false
                }
            },
            "normalTexture": {
                "index": 0,
                "texCoord": 0
            },
            "pbrMetallicRoughness": {
                "baseColorFactor": [
                    0.251349061727524,
                    0.800000071525574,
                    0.193993672728539,
                    0.584885716438293
                ],
                "metallicRoughnessTexture": {
                    "index": 1,
                    "texCoord": 0
                },
                "roughnessFactor": 1.0,
                "metallicFactor": 1.0
            }
        },
        {
            "name": "Med_Kit",
            "alphaMode": "OPAQUE",
            "extras": {
                "fromFBX": {
                    "shadingModel": "Phong",
                    "isTruePBR": false
                }
            },
            "normalTexture": {
                "index": 2,
                "texCoord": 0
            },
            "pbrMetallicRoughness": {
                "baseColorTexture": {
                    "index": 4,
                    "texCoord": 0
                },
                "baseColorFactor": [
                    1.0,
                    1.0,
                    1.0,
                    1.0
                ],
                "metallicRoughnessTexture": {
                    "index": 3,
                    "texCoord": 0
                },
                "roughnessFactor": 1.0,
                "metallicFactor": 1.0
            }
        },
        {
            "name": "Floor",
            "alphaMode": "OPAQUE",
            "extras": {
                "fromFBX": {
                    "shadingModel": "Phong",
                    "isTruePBR": false
                }
            },
            "pbrMetallicRoughness": {
                "baseColorFactor": [
                    0.0110877621918917,
                    0.0110877621918917,
                    0.0110877621918917,
                    1.0
                ],
                "metallicFactor": 0.400000005960464,
                "roughnessFactor": 0.280821830034256
            }
        }
    ],
    "meshes": [
        {
            "name": "Med_Kit",
            "primitives": [
                {
                    "material": 1,
                    "mode": 4,
                    "attributes": {
                        "JOINTS_0": 7,
                        "NORMAL": 5,
                        "POSITION": 4,
                        "TEXCOORD_0": 6,
                        "WEIGHTS_0": 8
                    },
                    "indices": 3
                },
                {
                    "material": 0,
                    "mode": 4,
                    "attributes": {
                        "JOINTS_0": 13,
                        "NORMAL": 11,
                        "POSITION": 10,
                        "TEXCOORD_0": 12,
                        "WEIGHTS_0": 14
                    },
                    "indices": 9
                }
            ]
        },
        {
            "name": "Studio",
            "primitives": [
                {
                    "material": 2,
                    "mode": 4,
                    "attributes": {
                        "NORMAL": 17,
                        "POSITION": 16,
                        "TEXCOORD_0": 18
                    },
                    "indices": 15
                }
            ]
        }
    ],
    "skins": [
        {
            "joints": [
                3,
                4
            ],
            "inverseBindMatrices": 19,
            "skeleton": 3
        }
    ],
    "animations": [
        {
            "name": "Med_kit|Med_kitAction",
            "channels": [
                {
                    "sampler": 0,
                    "target": {
                        "node": 4,
                        "path": "translation"
                    }
                },
                {
                    "sampler": 1,
                    "target": {
                        "node": 4,
                        "path": "rotation"
                    }
                }
            ],
            "samplers": [
                {
                    "input": 0,
                    "interpolation": "LINEAR",
                    "output": 1
                },
                {
                    "input": 0,
                    "interpolation": "LINEAR",
                    "output": 2
                }
            ]
        }
    ],
    "cameras": [
        {
            "name": "",
            "type": "perspective",
            "perspective": {
                "znear": 10.0,
                "zfar": 100000.0,
                "aspectRatio": 1.5,
                "yfov": 0.471089959144592
            }
        }
    ],
    "nodes": [
        {
            "name": "RootNode",
            "translation": [
                0.0,
                0.0,
                0.0
            ],
            "rotation": [
                0.0,
                0.0,
                0.0,
                1.0
            ],
            "scale": [
                1.0,
                1.0,
                1.0
            ],
            "children": [
                1,
                2,
                5,
                6,
                7,
                8,
                9
            ]
        },
        {
            "name": "Med_Kit",
            "translation": [
                0.0,
                0.0,
                0.0
            ],
            "rotation": [
                -0.707106828689575,
                0.0,
                0.0,
                0.707106709480286
            ],
            "scale": [
                100.0,
                100.0,
                100.0
            ],
            "mesh": 0,
            "skin": 0
        },
        {
            "name": "Med_kit",
            "translation": [
                0.0,
                0.0,
                0.0
            ],
            "rotation": [
                -0.707106828689575,
                0.0,
                0.0,
                0.707106709480286
            ],
            "scale": [
                100.0,
                100.0,
                100.0
            ],
            "children": [
                3,
                4
            ]
        },
        {
            "name": "2",
            "translation": [
                0.0,
                0.0,
                0.0
            ],
            "rotation": [
                0.707106828689575,
                0.0,
                0.0,
                0.707106709480286
            ],
            "scale": [
                1.0,
                1.0,
                1.0
            ]
        },
        {
            "name": "1",
            "translation": [
                0.0,
                0.0,
                0.00814893934875727
            ],
            "rotation": [
                0.706602215766907,
                -0.0267087407410145,
                -0.0267087407410145,
                0.706602156162262
            ],
            "scale": [
                1.0,
                1.0,
                1.0
            ]
        },
        {
            "name": "Light is blue",
            "translation": [
                2.77661371231079,
                1.180455327034,
                0.0
            ],
            "rotation": [
                -3.10515382295762e-08,
                2.1465911714813e-08,
                -0.568649172782898,
                0.82258015871048
            ],
            "scale": [
                176.478790283203,
                176.478790283203,
                176.478805541992
            ]
        },
        {
            "name": "Light is green",
            "translation": [
                -2.93952751159668,
                1.24143409729004,
                0.0
            ],
            "rotation": [
                -3.10182564078332e-08,
                -2.15139692727462e-08,
                0.5699223279953,
                0.821698546409607
            ],
            "scale": [
                191.924926757813,
                191.924926757813,
                191.924942016602
            ]
        },
        {
            "name": "Light is white",
            "translation": [
                0.0,
                1.07707273960114,
                3.62925863265991
            ],
            "rotation": [
                0.613031685352325,
                0.0,
                0.0,
                0.790058314800262
            ],
            "scale": [
                264.937194824219,
                100.000007629395,
                100.000007629395
            ]
        },
        {
            "name": "Camera",
            "translation": [
                -0.0216682739555836,
                1.89664578437805,
                2.29327726364136
            ],
            "rotation": [
                -0.309007406234741,
                -0.00663894414901733,
                -0.00215554237365723,
                0.951034009456635
            ],
            "scale": [
                100.0,
                100.0,
                99.9999923706055
            ],
            "camera": 0
        },
        {
            "name": "Studio",
            "translation": [
                0.0,
                0.0,
                0.0
            ],
            "rotation": [
                -0.707106828689575,
                0.0,
                0.0,
                0.707106709480286
            ],
            "scale": [
                100.0,
                100.0,
                100.0
            ],
            "mesh": 1
        }
    ]
}