{
    "asset": {
        "generator": "FBX2glTF v0.9.7",
        "version": "2.0"
    },
    "scene": 0,
    "buffers": [
        {
            "byteLength": 82712,
            "uri": "buffer.bin"
        }
    ],
    "bufferViews": [
        {
            "buffer": 0,
            "byteLength": 20472,
            "byteOffset": 0,
            "target": 34963
        },
        {
            "buffer": 0,
            "byteLength": 23340,
            "byteOffset": 20472,
            "target": 34962
        },
        {
            "buffer": 0,
            "byteLength": 23340,
            "byteOffset": 43812,
            "target": 34962
        },
        {
            "buffer": 0,
            "byteLength": 15560,
            "byteOffset": 67152,
            "target": 34962
        }
    ],
    "scenes": [
        {
            "name": "Root Scene",
            "nodes": [
                0
            ]
        }
    ],
    "accessors": [
        {
            "componentType": 5123,
            "type": "SCALAR",
            "count": 10236,
            "bufferView": 0,
            "byteOffset": 0
        },
        {
            "componentType": 5126,
            "type": "VEC3",
            "count": 1945,
            "bufferView": 1,
            "byteOffset": 0,
            "min": [
                -0.599050402641296,
                -0.656825602054596,
                -1.1371009349823
            ],
            "max": [
                0.599050402641296,
                0.904621124267578,
                0.838006258010864
            ]
        },
        {
            "componentType": 5126,
            "type": "VEC3",
            "count": 1945,
            "bufferView": 2,
            "byteOffset": 0
        },
        {
            "componentType": 5126,
            "type": "VEC2",
            "count": 1945,
            "bufferView": 3,
            "byteOffset": 0
        }
    ],
    "images": [
        {
            "name": "Plastic_4K_Diffuse.jpg",
            "uri": "Plastic_4K_Diffuse.jpg"
        }
    ],
    "samplers": [
        {}
    ],
    "textures": [
        {
            "name": "Map #1",
            "sampler": 0,
            "source": 0
        }
    ],
    "materials": [
        {
            "name": "red color",
            "alphaMode": "OPAQUE",
            "extras": {
                "fromFBX": {
                    "shadingModel": "Phong",
                    "isTruePBR": false
                }
            },
            "pbrMetallicRoughness": {
                "baseColorTexture": {
                    "index": 0,
                    "texCoord": 0
                },
                "baseColorFactor": [
                    1.0,
                    1.0,
                    1.0,
                    1.0
                ],
                "metallicFactor": 0.400000005960464,
                "roughnessFactor": 0.0741209909319878
            }
        }
    ],
    "meshes": [
        {
            "name": "among_us_001",
            "primitives": [
                {
                    "material": 0,
                    "mode": 4,
                    "attributes": {
                        "NORMAL": 2,
                        "POSITION": 1,
                        "TEXCOORD_0": 3
                    },
                    "indices": 0
                }
            ]
        }
    ],
    "nodes": [
        {
            "name": "RootNode",
            "translation": [
                0.0,
                0.0,
                0.0
            ],
            "rotation": [
                0.0,
                0.0,
                0.0,
                1.0
            ],
            "scale": [
                1.0,
                1.0,
                1.0
            ],
            "children": [
                1
            ]
        },
        {
            "name": "among_us_001",
            "translation": [
                0.0,
                0.113864369690418,
                0.0
            ],
            "rotation": [
                -0.70710676908493,
                -0.0,
                0.0,
                0.70710676908493
            ],
            "scale": [
                0.100000001490116,
                0.100000001490116,
                0.100000001490116
            ],
            "mesh": 0
        }
    ]
}